{"title":"Tangled 2010 TC H264 Feel-Free","uid":6093338,"size":930913364,"categoryP":"video","categoryS":"movies","magnet":"?xt=urn:btih:bd51ae8135728d853261f4d59a3f0f25577f709f&amp;dn=Tangled+2010+TC+H264+Feel-Free&amp;tr=udp%3A%2F%2Ftracker.openbittorrent.com%3A80&amp;tr=udp%3A%2F%2Fopen.demonii.com%3A1337&amp;tr=udp%3A%2F%2Ftracker.coppersurfer.tk%3A6969&amp;tr=udp%3A%2F%2Fexodus.desync.com%3A6969","seeders":1,"leechers":0,"uploader":"HeroMaster","files":-1,"time":1294657804,"description":"Genre:Animation | Comedy | Family\nLanguage:English\nIMDb:http://www.imdb.com/title/tt0398286/\nSource:Imagine Thx\n\n\nFormat : MPEG-4\nFormat profile : Base Media\nCodec ID : isom\nFile size : 885 MiB\nDuration : 1h 30mn\nOverall bit rate : 1 364 Kbps\nMovie name : Tangled 2010 TC H264 Feel-Free\n\n\nVideo\nFormat settings, CABAC : Yes\nFormat settings, ReFrames : 4 frames\nFormat settings, GOP : M=1, N=2\nCodec ID : avc1\nCodec ID/Info : Advanced Video Coding\nDuration : 1h 30mn\nBit rate mode : Variable\nBit rate : 1 200 Kbps\nWidth : 720 pixels\nHeight : 384 pixels\nDisplay aspect ratio : 1.875\nFrame rate mode : Constant\nFrame rate : 24.975 fps\nColor space : YUV\nChroma subsampling : 4:2:0\nBit depth : 8 bits\nScan type : Progressive\nBits/(Pixel*Frame) : 0.174\nStream size : 783 MiB (88%)\n\nAudio\nID : 2\nFormat : AAC\nFormat/Info : Advanced Audio Codec\nFormat version : Version 4\nFormat profile : LC\nCodec ID : 40\nDuration : 1h 30mn\nBit rate mode : Variable\nBit rate : 152 Kbps\nChannel(s) : 2 channels\nChannel positions : Front: L R\nSampling rate : 44.1 KHz\nStream size : 98.4 MiB (11%)\n\n\nPlot:\nThe long-haired Princess Rapunzel has spent her entire life in a tower, but when she falls in love with a bandit who was passing by she must venture into the outside world for the first time to find him.\n\nScreenshots:\n\n &lt;a href=&quot;\nhttp://www.leetleech.org/images/70375091702598769283.png&quot; rel=&quot;nofollow&quot; target=&quot;_NEW&quot;&gt;\nhttp://www.leetleech.org/images/70375091702598769283.png&lt;/a&gt;\n &lt;a href=&quot;\nhttp://www.leetleech.org/images/20626618860415619636.png&quot; rel=&quot;nofollow&quot; target=&quot;_NEW&quot;&gt;\nhttp://www.leetleech.org/images/20626618860415619636.png&lt;/a&gt;\n &lt;a href=&quot;\nhttp://www.leetleech.org/images/76959620869710783925.png&quot; rel=&quot;nofollow&quot; target=&quot;_NEW&quot;&gt;\nhttp://www.leetleech.org/images/76959620869710783925.png&lt;/a&gt;\n\n\nENJOY!","torrent":{"xt":"urn:btih:bd51ae8135728d853261f4d59a3f0f25577f709f","amp;dn":"Tangled+2010+TC+H264+Feel-Free","amp;tr":["udp%3A%2F%2Ftracker.openbittorrent.com%3A80","udp%3A%2F%2Fopen.demonii.com%3A1337","udp%3A%2F%2Ftracker.coppersurfer.tk%3A6969","udp%3A%2F%2Fexodus.desync.com%3A6969"],"infoHash":"bd51ae8135728d853261f4d59a3f0f25577f709f","infoHashBuffer":{"type":"Buffer","data":[189,81,174,129,53,114,141,133,50,97,244,213,154,63,15,37,87,127,112,159]},"announce":[],"urlList":[]}}